<?xml version="1.0" encoding="UTF-8" standalone="no"?>
<svg
   xmlns:dc="http://purl.org/dc/elements/1.1/"
   xmlns:cc="http://creativecommons.org/ns#"
   xmlns:rdf="http://www.w3.org/1999/02/22-rdf-syntax-ns#"
   xmlns:svg="http://www.w3.org/2000/svg"
   xmlns="http://www.w3.org/2000/svg"
   xmlns:sodipodi="http://sodipodi.sourceforge.net/DTD/sodipodi-0.dtd"
   xmlns:inkscape="http://www.inkscape.org/namespaces/inkscape"
   width="240.16075mm"
   height="46.835678mm"
   viewBox="0 0 240.16076 46.835678"
   version="1.1"
   id="svg8"
   inkscape:export-filename="/Users/nicolesullivan/Documents/Professional/VandegriftHuting_consulting/nuestro_iowa/app/assets/nuestro_iowa.png"
   inkscape:export-xdpi="96"
   inkscape:export-ydpi="96"
   inkscape:version="1.0.2 (e86c8708, 2021-01-15)"
   sodipodi:docname="nuestro_iowa.svg">
  <defs
     id="defs2">
    <rect
       x="157.03448"
       y="168.88223"
       width="32.540272"
       height="13.496254"
       id="rect6753" />
  </defs>
  <sodipodi:namedview
     id="base"
     pagecolor="#ffffff"
     bordercolor="#666666"
     borderopacity="1.0"
     inkscape:pageopacity="0.0"
     inkscape:pageshadow="2"
     inkscape:zoom="0.49510135"
     inkscape:cx="443.62975"
     inkscape:cy="113.19487"
     inkscape:document-units="mm"
     inkscape:current-layer="layer1"
     inkscape:document-rotation="0"
     showgrid="false"
     inkscape:window-width="1252"
     inkscape:window-height="655"
     inkscape:window-x="0"
     inkscape:window-y="23"
     inkscape:window-maximized="0" />
  <metadata
     id="metadata5">
    <rdf:RDF>
      <cc:Work
         rdf:about="">
        <dc:format>image/svg+xml</dc:format>
        <dc:type
           rdf:resource="http://purl.org/dc/dcmitype/StillImage" />
        <dc:title></dc:title>
      </cc:Work>
    </rdf:RDF>
  </metadata>
  <g
     inkscape:label="Layer 1"
     inkscape:groupmode="layer"
     id="layer1"
     transform="translate(-75.598954,-84.429073)">
    <polygon
       fill="#000000"
       fill-rule="evenodd"
       points="195.033,805.808 196.126,807.356 195.67,812.433 199.255,815.544 197.948,818.247 199.255,821.325 199.255,827.596 201.175,830.823 258.925,830.823 262.526,834.769 264.726,834.769 264.089,830.823 267.755,829.486 268.392,826.095 270.445,824.189 270.445,821.325 268.074,818.247 269.143,814.954 274.85,813.878 278.99,811.632 279.844,808.584 281.52,807.356 281.839,801.114 278.228,799.288 278.228,796.967 274.85,794.644 273.894,791.267 269.143,789.785 267.755,785.795 267.436,781.647 269.143,779.414 266.873,777.385 266.873,774.109 188.591,774.109 188.591,779.414 190.405,780.836 189.767,784.623 188.078,788.726 191.56,794.644 191.042,796.967 192.331,801.114 195.352,804.148 "
       transform="matrix(0.77210153,0,0,0.77210153,98.151376,-513.26167)"
       id="polygon6727"
       style="fill:#ea445b;fill-opacity:1" />
    <g
       aria-label="nuestro "
       id="text835"
       style="font-style:normal;font-weight:normal;font-size:52.9167px;line-height:0.85;font-family:sans-serif;text-align:start;letter-spacing:-3.96875px;word-spacing:-0.00264583px;text-anchor:start;fill:#000000;fill-opacity:1;stroke:none;stroke-width:0.264583">
      <path
         d="m 82.848542,96.005922 h -7.249588 v 26.458348 h 7.249588 v -16.45709 c 0,-3.59834 2.116668,-5.18584 4.868336,-5.18584 2.857502,0 4.445003,1.74625 4.445003,5.55626 v 16.08667 h 7.249588 v -17.99168 c 0,-5.979583 -3.175002,-9.048751 -8.149172,-9.048751 -4.445003,0 -7.355421,2.540001 -8.413755,6.297091 z"
         style="font-style:normal;font-variant:normal;font-weight:bold;font-stretch:normal;font-size:52.9167px;font-family:'Riviera Nights Trial';-inkscape-font-specification:'Riviera Nights Trial';text-align:start;text-anchor:start;fill:#ea445b;fill-opacity:1;stroke-width:0.264583"
         id="path7627" />
      <path
         d="m 118.4681,122.46427 h 7.24958 V 96.005922 h -7.24958 v 16.457098 c 0,3.59833 -2.11667,5.23875 -4.86834,5.23875 -2.80458,0 -4.39209,-1.79917 -4.39209,-5.60917 V 96.005922 h -7.24958 V 113.9976 c 0,6.0325 3.175,9.10167 8.04334,9.10167 4.445,0 7.35542,-2.54 8.46667,-6.29709 z"
         style="font-style:normal;font-variant:normal;font-weight:bold;font-stretch:normal;font-size:52.9167px;font-family:'Riviera Nights Trial';-inkscape-font-specification:'Riviera Nights Trial';text-align:start;text-anchor:start;fill:#ea445b;fill-opacity:1;stroke-width:0.264583"
         id="path7629" />
      <path
         d="m 141.17846,123.15219 c 3.70417,0 7.9375,-1.00542 10.37167,-3.33375 v -5.92667 c -2.75167,2.59291 -5.66208,3.75708 -9.10167,3.75708 -4.60375,0 -7.35542,-2.80458 -7.67292,-7.35542 h 18.25626 c 0.3175,-9.31334 -4.97417,-14.869591 -12.54126,-14.869591 -7.24959,0 -13.38792,5.132921 -13.38792,13.917091 0,8.73126 6.13833,13.81126 14.07584,13.81126 z m -0.74083,-22.59543 c 3.01625,0 4.92125,1.95792 5.13292,5.50334 h -10.63626 c 0.58208,-3.43959 2.16958,-5.50334 5.50334,-5.50334 z"
         style="font-style:normal;font-variant:normal;font-weight:bold;font-stretch:normal;font-size:52.9167px;font-family:'Riviera Nights Trial';-inkscape-font-specification:'Riviera Nights Trial';text-align:start;text-anchor:start;fill:#ea445b;fill-opacity:1;stroke-width:0.264583"
         id="path7631" />
      <path
         d="m 172.85158,103.30843 c -0.79375,-5.450423 -4.39208,-7.884591 -9.78959,-7.884591 -4.97417,0 -9.68375,2.804585 -9.68375,7.937501 0,4.28626 2.96333,6.77334 7.3025,8.14917 l 2.2225,0.74084 c 2.48709,0.79375 4.18042,1.48167 4.18042,3.28083 0,1.64042 -1.37583,2.64584 -3.4925,2.64584 -2.48709,0 -4.07459,-1.32292 -4.445,-4.02167 h -6.56167 c 0.3175,5.76792 4.81542,8.99584 11.1125,8.99584 5.97959,0 10.21293,-3.175 10.21293,-8.57251 0,-4.39208 -3.70417,-6.61458 -8.09626,-7.99042 l -2.32833,-0.68792 c -2.06376,-0.635 -3.33376,-1.64041 -3.33376,-3.12208 0,-1.5875 1.32292,-2.38125 2.85751,-2.38125 1.905,0 3.06916,1.11125 3.38666,2.91042 z"
         style="font-style:normal;font-variant:normal;font-weight:bold;font-stretch:normal;font-size:52.9167px;font-family:'Riviera Nights Trial';-inkscape-font-specification:'Riviera Nights Trial';text-align:start;text-anchor:start;fill:#ea445b;fill-opacity:1;stroke-width:0.264583"
         id="path7633" />
      <path
         d="m 191.68414,116.11427 c -1.48167,1.00542 -3.06917,1.48167 -4.445,1.48167 -2.16959,0 -3.4925,-1.00542 -3.4925,-4.07459 v -12.01209 h 8.30792 v -5.503338 h -8.30792 v -7.143754 l -11.80043,12.435422 v 0.21167 h 4.55084 v 13.12334 c 0,6.56167 3.43958,8.51959 8.94292,8.51959 2.11667,0 4.92125,-0.68792 6.24417,-1.48167 z"
         style="font-style:normal;font-variant:normal;font-weight:bold;font-stretch:normal;font-size:52.9167px;font-family:'Riviera Nights Trial';-inkscape-font-specification:'Riviera Nights Trial';text-align:start;text-anchor:start;fill:#ea445b;fill-opacity:1;stroke-width:0.264583"
         id="path7635" />
      <path
         d="m 200.05077,96.005922 h -7.24958 v 26.458348 h 7.24958 v -13.65251 c 0,-4.97417 3.17501,-6.72042 6.93209,-6.72042 1.05834,0 2.01084,0.15875 2.8575,0.47625 v -6.826251 c -0.47625,-0.105834 -1.05833,-0.15875 -1.5875,-0.15875 -3.70417,0 -7.19667,2.698751 -8.20209,8.096251 z"
         style="font-style:normal;font-variant:normal;font-weight:bold;font-stretch:normal;font-size:52.9167px;font-family:'Riviera Nights Trial';-inkscape-font-specification:'Riviera Nights Trial';text-align:start;text-anchor:start;fill:#ea445b;fill-opacity:1;stroke-width:0.264583"
         id="path7637" />
      <path
         d="m 207.70634,109.28801 c 0,7.67292 5.45042,13.86418 14.28751,13.86418 8.89,0 14.23459,-6.19126 14.23459,-13.86418 0,-7.67292 -5.34459,-13.864171 -14.23459,-13.864171 -8.83709,0 -14.28751,6.191251 -14.28751,13.864171 z m 14.28751,-8.36083 c 3.86292,0 6.61459,3.12208 6.61459,8.36083 0,5.23876 -2.75167,8.36084 -6.61459,8.36084 -3.86292,0 -6.61459,-3.12208 -6.61459,-8.36084 0,-5.23875 2.75167,-8.36083 6.61459,-8.36083 z"
         style="font-style:normal;font-variant:normal;font-weight:bold;font-stretch:normal;font-size:52.9167px;font-family:'Riviera Nights Trial';-inkscape-font-specification:'Riviera Nights Trial';text-align:start;text-anchor:start;fill:#ea445b;fill-opacity:1;stroke-width:0.264583"
         id="path7639" />
    </g>
    <text
       xml:space="preserve"
       id="text6751"
       style="font-style:normal;font-weight:normal;font-size:10.58329999999999949px;line-height:1.25;font-family:sans-serif;white-space:pre;shape-inside:url(#rect6753);fill:#000000;fill-opacity:1;stroke:none;" />
  </g>
</svg>
